<?xml version="1.0" standalone="no"?>
<!DOCTYPE svg PUBLIC "-//W3C//DTD SVG 20010904//EN"
 "http://www.w3.org/TR/2001/REC-SVG-20010904/DTD/svg10.dtd">
<svg version="1.0" xmlns="http://www.w3.org/2000/svg"
 width="1024.000000pt" height="1024.000000pt" viewBox="0 0 1024.000000 1024.000000"
 preserveAspectRatio="xMidYMid meet">
<metadata>
Created by potrace 1.14, written by Peter Selinger 2001-2017
</metadata>
<g transform="translate(0.000000,1024.000000) scale(0.100000,-0.100000)"
fill="#000000" stroke="none">
<path d="M0 5120 l0 -5120 5120 0 5120 0 0 5120 0 5120 -5120 0 -5120 0 0
-5120z m4600 2270 l0 -400 -1757 2 -1758 3 -3 398 -2 397 1760 0 1760 0 0
-400z m970 1 c0 -214 -3 -396 -6 -405 -5 -14 -51 -16 -414 -16 -363 0 -409 2
-414 16 -3 9 -6 191 -6 405 l0 389 420 0 420 0 0 -389z m3588 -13 l-3 -403
-1735 0 -1735 0 -3 403 -2 402 1740 0 1740 0 -2 -402z m-4568 -1348 l0 -870
-407 2 -408 3 -5 133 -5 133 -143 -135 -143 -136 -569 0 c-340 0 -570 4 -570
9 0 5 203 209 450 453 248 243 450 449 450 455 0 10 -126 13 -599 13 -389 0
-602 4 -606 10 -3 6 -1 10 5 10 11 0 172 156 643 620 l157 155 133 6 c72 3
466 6 875 7 l742 2 0 -870z m4580 0 l0 -870 -387 2 -388 3 -5 134 -5 134 -105
-99 c-58 -55 -124 -116 -148 -137 l-42 -37 -573 0 -572 1 458 454 c251 249
457 458 457 464 0 8 -183 11 -606 11 -333 0 -604 3 -602 8 2 4 182 182 401
396 297 290 406 391 430 396 18 5 404 8 860 9 l827 1 0 -870z m-7270 390 l0
-460 545 0 c430 0 545 -3 544 -12 0 -7 -17 -27 -39 -44 -21 -17 -195 -183
-387 -369 -191 -186 -361 -346 -378 -356 -28 -18 -61 -19 -567 -19 l-538 0 0
860 0 860 410 0 410 0 0 -460z m3668 -402 l2 -858 -420 0 -420 0 0 860 0 860
418 -2 417 -3 3 -857z m932 402 l0 -460 542 -2 c350 -2 542 -7 544 -13 2 -5
-13 -23 -34 -38 -20 -16 -196 -182 -390 -370 -194 -188 -368 -350 -385 -359
-29 -17 -76 -18 -564 -18 l-533 0 0 860 0 860 410 0 410 0 0 -460z m-1372
-1752 l-3 -403 -1725 0 -1725 0 -3 403 -2 402 1730 0 1730 0 -2 -402z m3652
-134 c0 -371 -3 -542 -11 -557 -14 -28 -660 -677 -674 -677 -12 0 -755 742
-755 754 0 5 58 6 138 3 210 -11 269 10 398 138 35 35 64 67 64 70 0 3 -598 5
-1328 5 -1020 0 -1331 3 -1340 12 -9 9 -12 112 -12 400 l0 388 1760 0 1760 0
0 -536z m-2702 -414 c2 -27 9 -50 19 -57 13 -10 135 -13 529 -13 302 0 523 -4
538 -10 24 -9 1566 -1499 1615 -1560 l24 -30 -564 0 c-437 1 -569 4 -587 13
-12 7 -186 171 -386 365 -200 193 -383 367 -406 387 l-42 35 -369 0 -369 0 -2
-397 -3 -398 -407 -3 -408 -2 0 860 0 860 408 -2 407 -3 3 -45z m-948 -30 c0
-39 -6 -85 -14 -103 -7 -18 -59 -75 -115 -126 -55 -52 -101 -98 -101 -103 0
-5 43 -52 95 -104 53 -51 103 -111 112 -131 14 -32 16 -72 14 -257 -2 -163 -6
-226 -16 -245 -17 -32 -551 -565 -582 -580 -27 -14 -1133 -16 -1133 -2 0 5
173 179 385 387 273 267 385 384 385 399 0 22 -53 83 -322 368 -78 82 -128
142 -128 155 0 13 69 93 186 216 l185 196 525 0 524 0 0 -70z m-1085 -839 c3
-5 -9 -20 -27 -32 -18 -13 -199 -187 -401 -387 -203 -199 -379 -367 -393 -372
-15 -6 -339 -10 -815 -10 -755 0 -789 1 -789 18 0 18 741 755 784 779 26 15
1631 19 1641 4z"/>
</g>
</svg>
