<svg width="46.92" height="40.034" viewBox="0 0 46.92 40.034" xmlns="http://www.w3.org/2000/svg">
    <path d="m28.401 0 .533.908 17.28 29.458.537.918-.53.922-3.97 6.906-.53.922H5.03l-.53-.922-3.97-6.906L0 31.284l.538-.918L17.818.908 18.35 0h10.051zm-2.11 3.67h-5.83L4.252 31.302l2.91 5.061h32.425l2.91-5.061L26.29 3.67zm-2.886 23.951c.66 0 1.189.188 1.587.564.397.376.596.88.596 1.513 0 .633-.199 1.137-.596 1.513-.398.376-.937.564-1.616.564-.66 0-1.19-.193-1.587-.579-.398-.386-.597-.885-.597-1.498 0-.633.2-1.137.597-1.513.398-.376.927-.564 1.587-.564h.029zm2.27-16.953v4.45l-.669 9.938h-3.26l-.67-9.938v-4.45h4.6zm34.04 23.86L66.709 7.73h4.452l6.956 26.797h-3.35L73 27.406h-8.132L63.1 34.528h-3.385zm5.815-9.911h6.771l-2.06-8.26c-.393-1.566-.7-2.875-.92-3.927a50.914 50.914 0 0 1-.405-2.056c-.05.318-.184 1.003-.405 2.056a96.86 96.86 0 0 1-.92 3.89l-2.06 8.297zm23.81 9.91V10.705h-7.36v-3.01h18.032v3.01h-7.36v23.824H89.34zm22.08 0V10.705h-7.36v-3.01h18.032v3.01h-7.36v23.824h-3.312zm16.376 0V7.732h15.456v3.01H131.07v8.296h10.893v2.973H131.07v9.508h12.18v3.01h-15.455zm21.712 0V7.732h4.416l8.206 22.942c-.049-.611-.104-1.364-.166-2.257a90.183 90.183 0 0 1-.147-2.827 75.877 75.877 0 0 1-.055-2.808V7.731h3.202v26.797h-4.416l-8.17-22.943c.05.588.098 1.328.147 2.221.05.893.092 1.835.13 2.827.036.99.054 1.939.054 2.844v15.05h-3.201zm28.152 0V10.705h-7.36v-3.01h18.032v3.01h-7.36v23.824h-3.312zm16.56 0v-3.01h5.483V10.742h-5.483v-3.01h14.352v3.01h-5.484v20.777h5.484v3.01H194.22zm29.256.368c-1.62 0-3.012-.306-4.177-.918a6.327 6.327 0 0 1-2.687-2.661c-.625-1.163-.938-2.54-.938-4.13V15.073c0-1.616.313-2.998.938-4.148a6.353 6.353 0 0 1 2.687-2.643c1.165-.612 2.557-.918 4.177-.918 1.619 0 3.011.306 4.176.918a6.353 6.353 0 0 1 2.687 2.643c.625 1.15.938 2.52.938 4.11v12.151c0 1.59-.313 2.967-.938 4.13a6.327 6.327 0 0 1-2.687 2.661c-1.165.612-2.557.918-4.176.918zm0-2.974c1.447 0 2.557-.41 3.33-1.23.773-.82 1.16-1.988 1.16-3.505V15.073c0-1.518-.387-2.686-1.16-3.506-.773-.82-1.883-1.23-3.33-1.23-1.423 0-2.527.41-3.312 1.23-.785.82-1.178 1.988-1.178 3.506v12.113c0 1.517.393 2.686 1.178 3.506.785.82 1.889 1.23 3.312 1.23zm14.352 2.607V7.73h4.416l8.206 22.942c-.049-.611-.104-1.364-.166-2.257a90.183 90.183 0 0 1-.147-2.827 75.877 75.877 0 0 1-.055-2.808V7.731h3.202v26.797h-4.416l-8.17-22.943c.05.588.098 1.328.147 2.221.05.893.092 1.835.13 2.827.036.99.054 1.939.054 2.844v15.05h-3.201z" fill="#FFF312" fill-rule="nonzero"/>
</svg>
