<svg width="48" height="48" viewBox="0 0 48 48" xmlns="http://www.w3.org/2000/svg">
    <g fill="#FFF" fill-rule="evenodd">
        <path d="M12.368 19.972a5.5 5.5 0 1 1 7.778 7.778 5.5 5.5 0 0 1-7.778-7.778zm1.768 1.768a3 3 0 1 0 4.243 4.242 3 3 0 0 0-4.243-4.242z" fill-rule="nonzero"/>
        <path d="M19.722 12.618a5.5 5.5 0 1 1 7.778 7.778 5.5 5.5 0 0 1-7.778-7.778zm1.838 1.697a3 3 0 1 0 4.243 4.243 3 3 0 0 0-4.243-4.243zM10.035 29.377a5.5 5.5 0 1 1 7.778 7.778 5.5 5.5 0 0 1-7.778-7.778zm1.767 1.767a3 3 0 1 0 4.243 4.243 3 3 0 0 0-4.243-4.243z" fill-rule="nonzero"/>
        <path d="M29.127 10.285a5.5 5.5 0 1 1 7.778 7.778 5.5 5.5 0 0 1-7.778-7.778zm1.767 1.767a3 3 0 1 0 4.243 4.243 3 3 0 0 0-4.243-4.243z" fill-rule="nonzero"/>
        <path d="M20.288 20.538c2.27-.429 3.92-.9 4.95-1.415 1.029-.514 2.207-1.457 3.535-2.828l7.071 2.121-1.003.602a1 1 0 0 0-.396 1.271l1.399 3.077 3.536-2.121.707.707c-3.23 4.644-5.94 8.062-8.132 10.253-2.154 2.154-5.572 4.865-10.253 8.132l-.707-.707 2.121-3.536-3.42-1.14a1 1 0 0 0-1.21.502l-.32.638-2.121-7.071c1.783-1.68 2.961-3.094 3.536-4.243.574-1.148.81-2.562.707-4.242zm.707.707c-.002 1.253-.722 2.537-1.478 3.757l-.253.404c-1.092 1.74-2.1 3.32-.971 4.45l.18.18c2.068 2.053 6.267 5.848 11.714.401 5.61-5.61 1.418-9.896-.58-11.894-1.13-1.13-2.711-.12-4.45.971l-.405.253c-1.22.756-2.504 1.476-3.757 1.478z"/>
    </g>
</svg>
