<svg width="48" height="48" viewBox="0 0 48 48" xmlns="http://www.w3.org/2000/svg">
    <path d="M30.364 9.707a10.827 10.827 0 0 1 7.929 7.929 26.652 26.652 0 0 1 0 12.728 10.827 10.827 0 0 1-7.929 7.929 26.652 26.652 0 0 1-12.728 0 10.827 10.827 0 0 1-7.929-7.929 26.652 26.652 0 0 1 0-12.728 10.827 10.827 0 0 1 7.929-7.929 26.652 26.652 0 0 1 12.728 0zM17.85 11.801a8.435 8.435 0 0 0-6.176 6.177 25.488 25.488 0 0 0 0 12.172 8.435 8.435 0 0 0 6.176 6.176c3.998.983 8.174.983 12.172 0A8.435 8.435 0 0 0 36.2 30.15a25.488 25.488 0 0 0 0-12.172 8.435 8.435 0 0 0-6.177-6.177 25.488 25.488 0 0 0-12.172 0zM26 21v11h-4V21h4zm-2-6a2 2 0 1 1 0 4 2 2 0 0 1 0-4z" fill="#FFF" fill-rule="nonzero"/>
</svg>
