<svg width="48" height="48" viewBox="0 0 48 48" xmlns="http://www.w3.org/2000/svg">
    <g fill="#FFF" fill-rule="nonzero">
        <path d="M16.559 9c3.244 0 6.559 5.682 6.559 9.735v15.503l-.778.776.778.778V39H10v-3.208l.777-.778-.777-.776V18.735C10 14.682 13.315 9 16.559 9zm0 2C14.707 11 12 15.641 12 18.735V33.41l.794.794v1.623l-.794.793V37h9.117v-.381l-.793-.793v-1.623l.793-.794V18.735c0-3.026-2.59-7.534-4.436-7.728L16.559 11z"/>
        <path d="M11 19h11.118v-2H11z"/>
        <g>
            <path d="M31.559 39C28.315 39 25 33.318 25 29.265V13.762l.778-.776-.778-.778V9h13.118v3.208l-.777.778.777.776v15.503c0 4.053-3.315 9.735-6.56 9.735zm0-2c1.851 0 4.559-4.641 4.559-7.735V14.59l-.794-.794v-1.623l.794-.793V11H27v.381l.793.793v1.623l-.793.794L27 29.265c0 3.026 2.591 7.534 4.437 7.728l.122.007z"/>
            <path d="M37.118 29H26v2h11.118z"/>
        </g>
    </g>
</svg>
