<svg width="48" height="48" viewBox="0 0 48 48" xmlns="http://www.w3.org/2000/svg">
    <g fill="#FFF" fill-rule="evenodd">
        <path d="M39.75 21.25a2.5 2.5 0 0 1-4.886.75H7v-2h28.085a2.499 2.499 0 0 1 4.665 1.25zm-10 11a2.5 2.5 0 1 0 5 0 2.5 2.5 0 0 0-5 0zm-6-21a2.5 2.5 0 1 0 5 0 2.5 2.5 0 0 0-5 0zm-5 23a2.5 2.5 0 1 0 5 0 2.5 2.5 0 0 0-5 0z"/>
        <path fill-rule="nonzero" d="m25.293 10.793 1.414 1.414L20.914 18H7v-2h13.084zM25.414 24l.293.293 6.5 6.5-1.414 1.414L24.585 26H7v-2z"/>
        <path fill-rule="nonzero" d="m16.414 28 .293.293 5 5-1.414 1.414L15.585 30H7v-2z"/>
    </g>
</svg>
