<svg width="48" height="48" viewBox="0 0 48 48" xmlns="http://www.w3.org/2000/svg" xmlns:xlink="http://www.w3.org/1999/xlink">
    <defs>
        <path d="M22.217 9.433c1.826-1.91 2.74-1.91 4.566 0C28.609 11.343 35 20.896 35 26.627c0 3.82-2.833 5.99-8.5 6.507V36l8.5 2.09v1.41H14v-1.41L22.5 36v-2.866c-5.667-.517-8.5-2.686-8.5-6.507 0-5.731 6.391-15.284 8.217-17.194z" id="8cw1gbgp9a"/>
    </defs>
    <g stroke="#FFF" fill="none" fill-rule="evenodd">
        <path stroke-width="2" d="M24.5 9c.495 0 .936.471 1.56 1.124C27.812 11.957 34 21.114 34 26.627c0 1.567-.567 2.805-1.733 3.698-1.449 1.11-3.72 1.703-6.767 1.881v4.578l5.557 1.365-14.311.295 6.754-1.66v-4.578c-3.047-.178-5.318-.771-6.767-1.88-1.166-.894-1.733-2.132-1.733-3.7 0-5.512 6.188-14.669 7.94-16.502C23.564 9.47 24.005 9 24.5 9z" stroke-linejoin="square"/>
        <use xlink:href="#8cw1gbgp9a"/>
    </g>
</svg>
