<svg width="117" height="133" viewBox="0 0 117 133" xmlns="http://www.w3.org/2000/svg">
    <defs>
        <filter x="-5.5%" y="-5.5%" width="110.9%" height="110.9%" filterUnits="objectBoundingBox" id="dxtr2tvuua">
            <feGaussianBlur stdDeviation="2" in="SourceGraphic"/>
        </filter>
        <filter x="-37.5%" y="-37.5%" width="175%" height="175%" filterUnits="objectBoundingBox" id="jww0196mdb">
            <feGaussianBlur stdDeviation="2" in="SourceGraphic"/>
        </filter>
    </defs>
    <g fill="none" fill-rule="evenodd">
        <path d="m333.793-61.5 9.707 9.707V301.5H-.5v-363h334.293z" stroke="#545AE9"/>
        <path stroke="#787CED" d="M5 16h16v16H5zM21 16h16v16H21zM37 16h16v16H37zM53 16h16v16H53zM69 16h16v16H69zM85 16h16v16H85zM101 16h16v16h-16zM5 32h16v16H5zM21 32h16v16H21zM37 32h16v16H37zM53 32h16v16H53zM69 32h16v16H69zM85 32h16v16H85zM101 32h16v16h-16zM5 48h16v16H5zM21 48h16v16H21zM37 48h16v16H37zM53 48h16v16H53zM69 48h16v16H69zM85 48h16v16H85zM101 48h16v16h-16zM5 80h16v16H5zM21 80h16v16H21zM37 80h16v16H37zM53 80h16v16H53zM69 80h16v16H69zM85 80h16v16H85zM101 80h16v16h-16zM5 96h16v16H5zM21 96h16v16H21zM37 96h16v16H37zM53 96h16v16H53zM69 96h16v16H69zM85 96h16v16H85zM101 96h16v16h-16zM5 112h16v16H5zM21 112h16v16H21zM37 112h16v16H37zM53 112h16v16H53zM69 112h16v16H69zM85 112h16v16H85zM101 112h16v16h-16zM5 64h16v16H5zM21 64h16v16H21zM37 64h16v16H37zM53 64h16v16H53zM69 64h16v16H69zM85 64h16v16H85zM101 64h16v16h-16z"/>
        <path stroke="#787CED" d="M7.603 6H0v127h115"/>
        <path stroke="#787CED" stroke-width="2" filter="url(#dxtr2tvuua)" d="M7 18h108v108H7z"/>
        <path d="M13 2.121 16.879 6 13 9.879 9.121 6 13 2.121zM31 2.121 34.879 6 31 9.879 27.121 6 31 2.121z" stroke="#FFF312" stroke-width="3"/>
        <path fill="#787CED" d="M0 56h2v25H0zM21 131h25v2H21z"/>
        <g stroke="#FFF" stroke-linecap="round" stroke-linejoin="round" stroke-width=".5">
            <path d="M79.255 57.293c-2.36-1.314-4.69-2.657-7.085-3.932-2.631-1.4-5.494-2.396-8.823-2.512-1.244-.044-2.458-.337-3.725-.199-.505.055-1.084.118-.755.708M85.764 61.253c1.825 2.22 4.548 3.874 6.501 6.016.21.23.528.455.97.478M83.332 87.915c-1.73-1.078-3.016-2.514-4.267-3.88-2.678-2.926-5.208-5.964-7.164-9.26-.69-1.164-1.619-2.2-2.43-3.297-.579-.781-1.308-1.44-1.28-2.466.013-.452-.483-.955-.894-1.336-1.07-.996-2.364-1.788-4.074-1.972-1.434-.155-1.871.809-2.391 1.57-1.947 2.857-3.053 5.9-3.441 9.087-.337 2.774-1.139 5.485-2.204 8.15-.503 1.262-1.407 2.4-2.237 3.557-1.904 2.654-4.559 4.88-6.8 7.341a3.55 3.55 0 0 1-.563.509c-1.579 1.121-3.014 2.356-4.396 3.618-1.555 1.42-3.21 2.76-4.877 4.094"/>
            <path d="M60.348 84.324c-.911 1.233-1.036 2.72-2.003 3.947-.198.252-.355.556-.576.822-2.204 2.663-4.666 5.164-7.087 7.696-1.793 1.875-4.059 3.237-6.244 4.722-.975.663-1.616 1.649-2.786 2.165M39.746 91.73c-2.075 2.317-3.823 4.77-6.332 6.907-.322.274-.662.523-1.16.634M66.921 63.62c-1.063.23-2.116.045-3.115-.09-2.858-.386-5.096.612-6.347 2.618-1.71 2.743-2.312 5.674-3.386 8.526-.587 1.557-.759 3.174-1.36 4.688-.635 1.604-.496 3.259-1.275 4.833-.41.827-1.131 1.509-1.529 2.342-1.1 2.307-2.756 4.4-4.711 6.393-.856.872-1.62 1.871-2.085 2.94"/>
            <path d="M75.047 60.568c.14-.298.175-.586-.06-.86-1.915-2.243-4.473-3.95-7.28-5.43-.85-.447-1.731-.802-2.413-1.46-1.168-1.13-2.978-1.236-4.66-1.286-1.548-.046-3.163-.101-4.68.312-1.084.296-2.198.544-3.202 1.057-3.305 1.689-5.87 3.933-7.583 6.702-1.239 2.005-1.854 4.2-2.365 6.389-.215.919-.652 1.782-1.02 2.665-.566 1.363-.51 2.8-.865 4.198-.408 1.61-.958 3.191-1.424 4.789-.518 1.774-1.048 3.55-1.693 5.299-.567 1.537-1.261 3.05-1.969 4.555-.788 1.677-1.915 3.212-3.272 4.66-1.056 1.128-1.576 2.551-3.038 3.465"/>
            <path d="M88.356 56.04c-2.959-2.327-6.128-4.465-9.25-6.645-2.388-1.666-5.145-2.842-8.076-3.763-1.757-.553-3.588-.959-5.338-1.523-1.802-.58-3.719-.79-5.575-1.19a2.272 2.272 0 0 0-.62-.035c-3.075.151-6.026.562-8.936 1.652a41.985 41.985 0 0 0-10.781 5.936c-2.185 1.66-3.722 3.744-5.602 5.603-1.77 1.753-2.944 3.818-4.703 5.576-.389.389-.523.942-.774 1.42M79.763 67.218c.844.159 1.418.575 1.762 1.114.468.736 1.156 1.34 1.847 1.955 1.19 1.056 2.066 2.259 2.865 3.495M79.022 107.669c-.48.168-1.08.059-1.351-.13-1.46-1.018-3.068-.353-4.598-.394-.686-.018-1.386.263-2.08.408M88.736 88.235c-1.223-1.25-2.99-2.1-4.15-3.399-.31-.345-.57-.669-.594-1.127-.043-.84-.911-1.369-1.411-2.028-1.445-1.904-2.985-3.763-4.53-5.618-2.248-2.699-3.911-5.656-5.993-8.428-.576-.767-.981-1.603-2.39-1.707-.305-.023-.56-.438-.808-.69-1.386-1.413-3.374-2.02-5.575-2.1-1.664-.06-2.548.96-3.263 2.034-1.109 1.666-2.174 3.363-2.737 5.16-.648 2.073-1.373 4.165-1.328 6.303.012.558-.307 1.01-.485 1.477-.843 2.21-1.205 4.539-2.665 6.6-.8 1.13-1.255 2.357-2.102 3.476-1.782 2.355-3.874 4.54-5.982 6.72-.2.206-.391.416-.587.624"/>
            <path d="M95.553 63.197c-1.948-1.052-3.714-2.261-5.19-3.728-.226-.225-.367-.532-.87-.52-1.202.032-1.885-.625-2.614-1.234-2.324-1.94-4.57-3.949-7.043-5.764-1.46-1.073-3.309-1.81-4.95-2.734-2.02-1.139-4.184-2.081-6.455-2.868-2.311-.8-4.768-1.438-7.296-1.332-1.813.077-3.66.12-5.504.327-2.673.301-5.024 1.068-7.278 2.135-1.522.72-3.086 1.433-4.163 2.644-.668.75-1.726 1.194-2.528 1.873-2.233 1.89-3.893 4.066-5.37 6.323-.6.92-1.537 1.56-2.322 2.301-2.095 1.982-3.504 4.229-4.79 6.55-.624 1.13-1.238 2.266-2.294 3.209"/>
            <path d="M50.86 61.662c.262.44.346.798.017 1.342-.926 1.533-1.137 3.234-1.53 4.904-.532 2.265-.597 4.565-1.21 6.828-.574 2.117-1.111 4.249-1.77 6.346-.751 2.396-1.48 4.82-2.928 7.033-.357.546-.65 1.117-1.484 1.236M77.935 105.142c1.161.892 2.46 1.578 4.13 1.716"/>
            <path d="M91.845 77.19c-1.77-1.777-3.532-3.558-5.298-5.336-2.047-2.06-3.935-4.221-5.777-6.399-1.557-1.84-3.295-3.572-5.002-5.323-.385-.394-.842-.706-.937-1.248-.06-.34-.531-.507-.879-.68-1.844-.914-3.602-1.925-5.421-2.861-1.112-.573-2.262-1.157-3.682-1.383-2.567-.41-5.115-.722-7.771-.37-2.578.341-4.73 1.414-6.808 2.562-.644.356-1.054 1.011-1.473 1.572-1.139 1.524-2.964 2.706-3.802 4.369-.588 1.168-.944 2.406-1.602 3.55-1.056 1.832-1.28 3.82-2.186 5.683-.434.893-.345 1.932-.437 2.906-.03.323.015.642-.19.945"/>
            <path d="M66.946 55.928a2.453 2.453 0 0 1-1.77.02c-2.534-.954-5.127-.54-7.573.207-3.12.955-5.521 2.672-7.445 4.913-.99 1.154-1.722 2.368-2.527 3.572-.658.983-1.002 2.095-1.03 3.143-.035 1.334-.658 2.551-1.088 3.77-.33.932-.31 1.864-.594 2.784-.487 1.584-.907 3.19-1.568 4.732-.297.69-.054 1.34-.365 2.01-.7 1.507-1.214 3.062-1.855 4.586-.324.772-.427 1.602-1.014 2.309M66.483 48.577c-.646.294-1.341.398-2.026.234-3.115-.742-6.25-.25-9.38.068-.98.099-1.812.574-2.702.892-1.985.71-3.943 1.45-5.6 2.68-1.975 1.466-3.257 3.348-4.678 5.148-1.102 1.397-1.904 2.927-2.852 4.391-.642.99-.926 2.1-1.685 3.038M81.868 91.214c1.904 1.443 4.31 2.2 6.264 3.572M38.467 67.74c-.092 1.17-.85 2.175-1.26 3.265-.234.627-.796 1.222-1.006 1.88-.33 1.036-1.175 1.815-1.725 2.738-.975 1.637-1.233 3.456-2.01 5.146-.284.618-.81 1.144-.935 1.83-.046.252-.032.445.073.657M88.892 75.141c-.2.39.274.498.447.708.865 1.048 1.977 1.945 2.632 3.126.235.423.73.651 1.199.88M39.852 103.76c-1.312.449-2 1.533-2.956 2.338-.823.695-1.424 1.604-2.791 1.55-.305-.012-.637.383-.957.591"/>
            <path d="M44.136 92.532c1.027-1.718 1.991-3.463 3.099-5.147 1.349-2.05 2.512-4.176 3.048-6.427.682-2.863 1.638-5.68 2.24-8.559.306-1.46.463-3.024 1.743-4.32.625-.634.497-1.573.77-2.366.721-2.104 2.24-3.72 4.213-5.108.28-.196.759-.244 1.154-.281 1.713-.161 3.35-.084 4.928.589.96.409 1.116 1.298 1.988 1.742 1.97 1.003 3.415 2.495 4.617 4.05a25.466 25.466 0 0 1 2.136 3.288c1.178 2.142 2.484 4.257 4.294 6.104 1.673 1.707 3.225 3.464 4.583 5.371 1.543 2.165 3.066 4.424 5.806 5.82.085.043.097.18.143.274M34.75 85.834c-.415.066-.755.32-.837.566-.721 2.168-2.183 4.104-3.336 6.136-.118.208.022.495-.327.63"/>
            <path d="M82.016 71.57c-2.011-2.895-3.585-6.008-6.506-8.452-2.294-1.92-4.553-3.849-7.606-5.104-3.153-1.296-6.407-1.312-9.619-.23-2.154.726-3.657 2.199-4.539 3.953-.633 1.258-1.177 2.554-1.431 3.878a60.675 60.675 0 0 1-.867 3.929c-.411 1.572-.535 3.175-1.124 4.732-.414 1.093-.594 2.244-.823 3.356-.395 1.927-1.244 3.72-2.001 5.557-.655 1.59-1.415 3.134-2.397 4.62-.082.125.01.317.021.478M44.853 105.796l-4.818 4.346-.933-.58M42.893 92.934c-.522 1.066-.833 2.194-1.786 3.132"/>
            <path d="M91.295 64.551c-3.276-2.888-6.718-5.654-9.73-8.733-1.768-1.807-3.92-3.353-6.415-4.586-1.569-.775-2.944-1.774-4.6-2.462a30.633 30.633 0 0 0-2.645-.973c-.643-.2-1.223-.4-1.728-.895-.623-.611-1.831-.712-2.83-.876-3.552-.585-7.108.167-10.636.502-1.405.134-2.764.909-4.105 1.513-2.935 1.32-5.013 3.283-7.216 5.18-2.098 1.81-3.308 4.05-4.801 6.135-1.234 1.724-1.987 3.65-2.992 5.473-.456.826-.58 1.716-1.496 2.456-1.034.836-1.04 2.147-1.776 3.17-.691.961-1.26 1.959-1.42 3.075-.035.252-.369.556-.667.71-1.377.714-1.648 1.811-1.724 2.928-.05.747-.686 1.298-.874 1.982-.065.238-.331.053-.478.13M71.75 104.445c-.637-1.033-2.17-1.476-3.731-1.082-.192.048-.388.123-.58.125-2.137.021-4.018.728-5.92 1.398-.867.305-1.753.585-2.656.81-2.979.746-5.682 1.91-8.261 3.268-.184.097-.42.115-.338.385.263.874-.72 1.12-1.44 1.323-.996.28-1.686.738-2.122 1.432-.493.787-1.75.992-2.246 1.763-.016.026-.073.036-.111.054l.062.04M91.37 77.075c-.874.718-.26 1.112.516 1.408.893.342 1.645.788 2.215 1.409M73.86 90.282c-.233 1.094.747 1.517 1.59 1.99 2.19 1.227 4.712 2.012 6.75 3.442M37.818 99.797c-1.952 1.745-3.907 3.488-5.636 5.406M52.378 41.184c-.37 1.303-1.929 1.512-3.091 1.928-2.096.75-3.935 1.803-5.82 2.8-1.522.807-2.961 1.72-4.385 2.637-1.505.968-2.47 2.313-3.712 3.466-.901.836-1.864 1.62-2.565 2.596-.516.72-1.65 1.028-2.225 1.807-.398.539-.668 1.076-.553 1.614.142.66-.076 1.213-.405 1.784"/>
            <path d="M87.629 67c-1.359-.988-2.842-1.807-3.882-3.13-2.02-2.568-4.213-5.072-7.04-7.147-.366-.269-.785-.569-1.248-.66-1.238-.241-2.025-.97-2.979-1.523-2.616-1.52-5.433-2.779-8.425-3.784-1.055-.355-2.248-.275-3.378-.32-.83-.034-1.598-.108-2.306-.436M72.92 108.723c-1.03.365-1.991.743-2.888 1.424-.983.747-2.38 1.038-3.758 1.012-.402-.008-.803-.02-1.205-.031M88.311 103.907c-1.368-.454-2.803-.786-4.175-1.246-1.13-.38-2.42-.597-3.593-.96-1.77-.549-3.478-1.2-5.255-1.734-1.485-.446-2.93-.956-4.476-1.314-1.359-.316-2.591-.892-3.92-1.282-1.446-.425-2.65-1.147-4.232-1.457-1.532-.3-2.648-.103-3.797.596-.757.46-1.571.882-2.036 1.555M83.74 90.206c-.537-.959-1.816-1.32-2.593-2.084-1.24-1.218-2.523-2.413-3.673-3.686-1.278-1.413-2.447-2.893-3.625-4.364-1.372-1.715-2.455-3.573-3.743-5.321-1.104-1.498-2.22-3.036-3.78-4.297a5.897 5.897 0 0 0-1.044-.704c-.805-.41-1.492-.3-2.06.342-.624.705-.904 1.515-1.044 2.339-.099.58-.275.994-.836 1.483-.704.613-.64 1.606-.606 2.453.04.98.094 1.975.353 2.921.15.545-.06 1.06.068 1.575M69.87 91.284c2.875.973 5.691 2.028 8.26 3.432M84.868 46.214c1.268 1.204 3.208 1.767 4.71 2.75.476.31 1.034.55 1.554.822"/>
            <path d="M48.322 102.211c1.34-1.119 3.069-1.98 4.231-3.214.411-.437 1.055-.68 1.58-1.022 1.53-.997 2.647-2.247 4.076-3.311 1.066-.794 2.122-1.396 3.686-1.41.46-.005.811.14 1.207.221 2.15.441 3.993 1.304 5.965 1.976 1.857.634 3.823 1.09 5.702 1.682 2.666.84 5.358 1.674 8.104 2.405.081.022.225-.064.34-.1M87.984 60.205c-.473.609.476.821.828 1.162 1.4 1.36 3.232 2.481 5.355 3.418M93.847 85.17c-1.28-.453-2-1.371-2.795-2.202-1.112-1.163-2.079-2.415-3.174-3.589-2.765-2.964-5.064-6.156-7.175-9.442-.04-.062-.132-.122-.127-.182.12-1.533-1.013-2.662-1.85-3.885-.732-1.073-1.567-2.036-3.063-2.578-1.227-.445-1.766-1.528-2.812-2.184-2.001-1.254-3.9-2.677-6.412-3.24-3.069-.69-6.122-1.009-9.291.377-2.233.977-3.804 2.361-5.583 3.718-2.727 2.08-3.071 4.649-3.75 7.219-.062.23-.156.474-.246.67-.526 1.148-.384 2.335-.625 3.487-.245 1.176-.455 2.364-.942 3.542-.607 1.468-.862 3.043-1.347 4.558a34.817 34.817 0 0 1-1.79 4.45c-.727 1.517-1.755 3.048-1.42 4.762.054.272-.22.357-.424.526-.449.37-.87.78-.787 1.376.046.335.264.271.518.25M36.817 43.762c-1.539 1.179-3.29 2.226-4.639 3.523-.674.647-1.33 1.302-1.995 1.953M46.853 107.796c-1.36 1.062-3.026 1.835-4.156 3.119-.429.488-.887.982-1.55 1.29M40.254 73.642c-.473 1.825-.68 3.723-1.702 5.402-.72 1.183-.85 2.532-1.444 3.762-1.145 2.372-1.913 4.88-3.11 7.244-.801 1.583-1.777 3.059-2.865 4.483-.192.25-.467.469-.378.824"/>
            <path d="M82.712 92.381c-.22-1.057-1.375-1.478-2.2-1.993-1.212-.757-2.173-1.704-3.05-2.652-3.07-3.316-5.776-6.844-7.926-10.677-.755-1.347-1.88-2.54-2.84-3.8-.057-.076-.194-.11-.241-.187-.347-.564-.963-.585-1.575-.472-.47.087-.555.487-.522.82.047.496-.126 1.019.768 1.276 1.272.365 1.625 1.514 2.178 2.415 2.709 4.409 5.321 8.863 9.748 12.28.427.33.768.74 1.15 1.112M28.928 63.933c-1.023.594-2.064 1.183-1.84 2.133M40.816 97.727c-2.043 2.157-4.884 3.823-7.632 5.546"/>
            <path d="M64.722 74.52c-.648 1.262-.047 2.361.466 3.514 1.342 3.015 3.723 5.458 6.34 7.78.74.655 1.275 1.426 2.036 2.08 1.78 1.53 3.577 3.015 5.953 3.973.4.161.753.39 1.127.587M46.857 106.844c-.967-.138-1.435.375-1.753.96-.75 1.385-2.495 2.113-3.455 3.355-.035.045-.334-.036-.51-.059M40.962 110.901c-1.375.02-1.83.915-2.923 1.202M88.833 56.215c2.286 1.396 4.595 2.777 6.334 4.57M89.933 89.072l2.134 1.856M76.993 108.79c-.523.036-1.065.091-1.564.106-1.519.046-2.997.13-4.418.363M87.934 46.107c.797.756 2.41.98 3.132 1.786M59.797 90.412c1.659-1.307 4.247-1.2 5.303-.262.195.174.56.303.46.727-.15.637.568 1.11 1.12 1.115 1.623.015 2.47 1.086 3.766 1.528 1.88.64 3.613 1.548 5.616 1.97.672.142.956.7 1.599.857.213.052.401.058.592-.045M82.938 92.212c1.225.235 2.24.711 3.337 1.092.868.301 1.667.677 2.786.457M86.934 95.107c.029.686.528.938 1.218 1.047.703.112 1.395.264 1.914.739M82.968 95.071c.659.348 1.47.37 2.064.858M70.396 66.404c-.105.705.203 1.345.579 1.882 1.785 2.552 3.383 5.207 4.852 7.908 1.02 1.877 2.614 3.381 3.61 5.242a11.167 11.167 0 0 0 2.098 2.767c.345.336.67.427 1.114.39M50.924 34.828c-1.078.28-2.167.524-3.231.856-.722.226-1.64.291-1.617 1.488M79.934 103.107c1.06.55 2.355.447 3.132 1.786M74.393 57.621c1.104-.153 1.697.446 2.327.978 2.147 1.81 4.121 3.744 5.736 5.876 1.462 1.93 3.584 3.336 5.483 4.926 1.096.917 1.875 2.054 3.061 2.918.386.281.618.661 1.122.887.531.237.51.731.338 1.19"/>
            <path d="M65.984 92.195c-.436.137-.826.235-1.338.107-1.741-.434-1.794-.397-2.606.836M58.928 77.933c-2.242.687-1.844 1.414-1.856 2.134M35.928 64.933c-.972.649-1.321 1.408-1.856 2.134M78.936 96.177c.316.507 1.268.315 1.856.55 1.035.414 2.176.736 3.272 1.096M33.305 60.753c.657.78-.004 1.397-.403 2.005-1.614 2.46-3.252 4.897-4.188 7.652-.235.691-.567 1.427-1.39 1.953-.584.373-.86 1.164-.86 1.9M58.644 50.047c-2.087-.221-3.955.466-5.746 1.226-.496.21-1.02.351-1.515.527-2.954 1.046-4.663 3.153-6.247 5.259-1.098 1.46-2.345 2.882-3.047 4.552-.267.635-.517 1.275-.772 1.915-.262.66-.404 1.358-1.145 1.844-.77.504-.523 1.347-.888 2.014-1.173 2.148-2.89 4.092-3.675 6.38-.428 1.247-1.43 2.26-1.998 3.446-.126.262-.314.563-.157.784.595.838-.14 1.482-.455 2.18-.746 1.648-1.515 3.279-1.542 5.074-.008.499-.347 1.008-.573 1.5-.508 1.107-.782 2.284-1.52 3.322M93.933 76.072c2 .378 2.196 1.09 2.084 1.86M88.9 47.143c1.559.473 2.637 1.356 3.868 2.106.229.138.353.366.32.609M61.903 82.274c-.078.097-.24.206-.222.288.432 1.905.413 3.948 2.776 5.277.46.258.894.54 1.333.817.729.46 1.562.835 2.03 1.494.534.752 1.858.89 2.519 1.559M82.802 50.387c-.25.53.118.782.677 1.045 2.461 1.16 4.555 2.668 6.97 3.89 1.572.795 2.924 1.958 3.852 3.283M89.969 85.744c-.136-.367-.427-.63-.751-.907-1.33-1.132-2.6-2.293-3.695-3.608-1.514-1.817-3.09-3.595-4.433-5.505-.41-.583-1.364-.516-1.856-1.092-1.152-1.351-2.01-2.832-2.946-4.277-.652-1.005-1.523-1.972-1.702-3.11-.168-1.069-.913-1.77-1.623-2.546-1.473-1.61-2.926-3.259-4.999-4.382-2.504-1.357-5.32-2.235-8.348-1.28-2.118.666-3.652 2.047-4.572 3.863-.74 1.462-1.088 2.963-1.39 4.484-.079.4-.036.843.47 1.104M82.9 44.143c1.16 1.126 2.632 1.963 4.2 2.714M58.319 80.5c-.169 3.238-1.588 6.177-3.598 8.967-1.603 2.224-3.727 4.147-5.663 6.177-1.18 1.239-2.397 2.455-3.86 3.491-.578.41-.777.836-.255 1.347M38.676 89.732c-.173.988-.753 1.815-1.517 2.606-1.295 1.341-1.964 2.977-3.21 4.357-.817.904-2.026 1.539-2.625 2.573M89.968 92.071c.876.007 1.206.824 2.064.858M77.716 104.886c-.577.045-1.085.008-1.634-.205-1.247-.481-2.593-.766-4.002-.157a5.818 5.818 0 0 1-2.145.493c-1.013.036-1.786.584-2.693.847-1.9.552-3.823 1.052-5.727 1.594a387.799 387.799 0 0 0-6.061 1.778c-.847.257-1.351.86-2.072 1.26-1.503.835-2.87 1.75-3.895 3a4.497 4.497 0 0 1-3.134 1.61M34.963 104.94c-.896-.05-1.182.923-1.926 1.129"/>
            <path d="M61.63 81.413c.896-.19 1.037.468 1.123.933.38 2.065 1.834 3.462 3.49 4.756.554.433 1.137.802 1.537 1.416.695 1.068 1.966 1.68 3.001 2.45.625.465 1.63.712 2.59.635M92.448 53.82c-1.612-.586-3.005-1.42-4.342-2.325-1.19-.805-2.202-1.862-4.051-1.781-.169.007-.335-.229-.517-.336a90.74 90.74 0 0 0-8.424-4.364c-2.079-.945-4.297-1.694-6.543-2.38-.588-.179-1.177-.359-1.86-.27-1.162.15-2.035-.51-3.107-.68-3.616-.57-7.196-.536-10.805.273-.364.082-.805.39-1.212.104-1.088-.762-2.125-.06-3.043.249-2.443.82-4.573 2.11-6.832 3.206-2.667 1.294-4.573 3.179-6.827 4.777a21.01 21.01 0 0 0-4.53 4.361M86.933 91.072c.596.772 1.227 1.5 2.134 1.856M76.703 36.5c.292.065.62.092.87.202 2.127.93 4.41 1.736 6.305 2.858 1.558.922 3.022 1.96 4.45 3 .94.686 1.782 1.44 2.969 1.94M76.11 36.158c-2.962-1.61-6.297-2.429-9.814-2.63-2.249-.129-4.546-.502-6.782-.13-2.117.352-4.35-.196-6.394.763-.215.102-.788.128-1.199.129M31.963 51.931c-1.063.338-1.736.714-1.926 1.138M84.96 89.07c-.098.39.238.597.581.847.488.355 1.307.465 1.526 1.01M33.397 68.742c-.16.672-.541 1.27-.792 1.904-.81 2.045-2.04 3.954-2.679 6.017-.362 1.17-.98 2.282-1.16 3.528-.132.897-.77 1.73-1.132 2.609-.463 1.122-.42 2.37-1.031 3.458M63.967 35.762c-2.706-.003-5.417.023-8.112.313-2.176.235-4.241.958-6.459 1.067-.316.016-.258.239-.343.38M32.963 82.931c-.839.173-.999 1.058-1.926 1.138M32.963 100.931l-1.926 1.138M79.195 102.693c-1.043-.292-2.018-.739-3.038-1.043-2.692-.804-5.136-2.242-8.16-2.227-.538.003-.833-.234-1.239-.488-1.597-1.001-3.29-1.946-5.415-1.895-.654.016-1.391.292-1.94.625-.836.507-1.853.68-2.658 1.235-.577.398-1.356-.006-2.112.414-1.854 1.03-3.356 2.405-5.153 3.474-.797.473-1.323 1.296-2.505 1.3-.277.002-.584.395-.796.703-.187.272-.563.61-.915.077M62.984 39.032c-1.463.189-2.894-.223-4.35-.176-3.274.106-6.507.437-9.582 1.631M80.968 108.071l2.064.858M47.994 36.88l-1.988.24M81.626 73.292c.874 1.96 2.413 3.64 3.92 5.32 1.365 1.522 2.664 3.093 4.403 4.41.223.169.287.454.425.686M80.182 75.787c.275-1.023-.497-1.84-1.236-2.568-1-.985-1.837-2.007-2.612-3.08-.556-.771-1.161-1.635-2.606-1.92M47.703 40.487c-2.26.947-4.69 1.72-6.732 2.891-2.146 1.232-4.334 2.52-5.887 4.274-.563.636-1.466 1.092-1.787 1.861"/>
            <path d="M63.809 99.518c-1.043.761-2.334.891-3.522 1.22-.722.2-1.481.29-2.142.664-.679.384-1.4.632-2.149.83-.967.255-1.88.617-2.706 1.202-1.01.715-2.064 1.368-3.099 2.048M50.963 108.931c-1.868.283-1.988.703-1.921 1.137M49.963 104.931c-.584.446-1.07 1.003-1.926 1.138M43.712 89.766c-1.138 1.683-2.285 3.365-3.41 5.051-.424.635-.986 1.2-1.686 1.731-.45.342-.935.735-.83 1.229.058.28-.307.318-.498.457M80.968 98.071l2.064.858M79.195 42.596c-2.283-1.422-4.77-2.465-7.502-3.273-1.994-.59-4.129-.876-6.017-1.714-.896-.397-2-.332-2.949-.344-1.666-.019-3.283-.452-5.004-.146-2.067.368-4.189.494-6.278.779-1.798.245-3.45.9-5.146 1.443-2.12.68-3.958 1.806-6.022 2.572-.451.167-.78.572-1.166.868M37.715 75.835c-.46 1.536-.908 3.067-2.38 4.418-.312.286-.44.687-.501 1.04-.135.78-.439 1.497-1.28 2.126-.252.188-.45.482-.107.734M63.417 73.3c.365.369.269.854.28 1.29.06 2.12.361 4.196 1.158 6.167.25.619.66 1.174 1.012 1.748 1.255 2.045 2.796 3.829 4.668 5.336.586.472 1.054 1.103 1.522 1.704.178.228.343.14.526.155M54.489 93.354c-.068.951-1.012 1.52-1.699 2.128-2.871 2.543-5.722 5.118-8.836 7.463-1.911 1.44-3.489 3.112-5.445 4.506-.632.45-.934 1.216-1.998 1.184"/>
            <path d="M69.285 69.536c-.753-.053-1.178-.475-1.674-.824-2.36-1.662-3.62-.827-4.88.916-.87 1.201-.978 2.605-1.632 3.867-.474.915-1.086 1.845-.615 2.772.404.793.273 1.549.276 2.349.005 1.638-.539 3.291-.153 4.907.199.834.747 1.605.651 2.503-.046.435-.165.766-.485 1.195-1.302 1.747-3.117 3.289-3.919 5.238M66.676 35.71c2.693.346 5.306.969 7.762 1.735 2.873.896 5.63 2.038 8.014 3.612 1.626 1.075 3.015 2.35 4.872 3.233M61.747 39.742c3.489.02 6.529 1.071 9.648 1.88 3.066.795 5.835 2.005 8.436 3.386.8.425 1.724.734 2.533 1.15.313.16.585.103.89.1M44.812 37.622c-.583.505-1.46.567-2.186.838-2.097.783-3.77 2.004-5.642 3.017-1.026.556-1.865 1.266-2.796 1.9M66.769 100.38c-.256.326-.59.608-1.02.742-1.836.572-3.528 1.424-5.438 1.872-1.157.272-2.155.91-3.356 1.21-1.876.47-3.563 1.362-5.324 2.084-.871.357-1.31 1.246-2.4 1.333M69.92 107.16c-.277-.71-.877-.505-1.261-.317-1.701.833-3.52 1.316-5.293 1.921-.588.201-.976.628-1.49.886-.876.439-1.744.926-2.773.516"/>
        </g>
        <text font-family="JetBrainsMono-Regular, JetBrains Mono" font-size="12" fill="#BBC1FB" transform="translate(-1 -62)">
                    <tspan x="87" y="72">B-HU</tspan>
                </text>
        <g stroke="#FFF312">
            <path stroke-width="2" filter="url(#jww0196mdb)" d="M1 1h14v14H1z" transform="translate(52 96)"/>
            <path d="m67 97-14 14M53 97l14 14M52.5 96.5h15v15h-15zM67 97l-14 14M53 97l14 14"/>
        </g>
    </g>
</svg>
