<svg width="256" height="44" viewBox="0 0 256 44" xmlns="http://www.w3.org/2000/svg">
    <g fill="#FFF" fill-rule="nonzero">
        <path d="M197.02.089h58.664c0 .267.045.534.045.8 0 5.562 0 11.123-.045 16.64 0 .49-.226 1.112-.541 1.468-3.475 3.515-6.995 6.94-10.47 10.41a1.964 1.964 0 0 1-.45.356c-4.198-4.182-8.35-8.364-12.681-12.724 1.128 0 2.075-.089 2.978 0 2.482.356 4.467-.4 6.047-2.313.316-.4.722-.667 1.083-.979.045-.044.045-.089.09-.267a5.094 5.094 0 0 0-.767-.089H197.697c-.496.045-.677-.178-.677-.667V.089z"/>
        <path d="M210.784 30.43v6.674c0 2.002-.045 4.004-.045 6.05 0 .49-.136.668-.677.668h-12.997V15.126h13.583c0 .223.045.4.045.579.046 1.334.046 1.334 1.354 1.334h15.614c.767 0 1.309.178 1.85.712 7.717 7.563 15.478 15.082 23.195 22.645.993.98 1.985 1.958 2.978 2.981.09.09.135.223.316.445h-18.096c-.676 0-1.128-.178-1.624-.623-4.152-4.093-8.348-8.141-12.545-12.19-.316-.311-.767-.578-1.173-.578a496.068 496.068 0 0 0-11.508 0c-.135-.045-.18 0-.27 0zM58.709 15.26V43.91H45.036v-4.493a8.147 8.147 0 0 0-.858.756l-3.655 3.47c-.18.178-.541.356-.767.356H21.57c-.09 0-.135-.044-.496-.133 5.1-5.072 10.153-10.055 15.207-14.993a.97.97 0 0 0-.135-.223h-19.9c-.046-.089-.136-.222-.181-.311.451-.356.948-.712 1.399-1.112 3.88-3.782 7.716-7.608 11.597-11.39.316-.311.858-.578 1.309-.578 9.296-.045 18.637-.045 27.933-.045.09 0 .225 0 .406.045zM134.656 15.26V43.91H121.75v-4.449c-.316.223-.541.356-.722.534-1.264 1.157-2.482 2.358-3.745 3.515-.226.222-.587.445-.903.445-6.047.044-12.049 0-18.095 0-.09 0-.226-.045-.587-.09 5.144-5.071 10.198-10.01 15.252-14.992-.045-.09-.045-.134-.09-.223H92.915c-.046-.089-.09-.222-.181-.311.451-.4.948-.757 1.354-1.157 3.88-3.782 7.716-7.608 11.597-11.39.316-.31.812-.533 1.219-.533 9.386-.045 17.96-.045 27.346 0a.635.635 0 0 1 .406 0zM.09.222h58.664v12.235c0 1.068 0 1.068-1.083 1.068H.857c-.541 0-.857-.045-.857-.712C.045 8.72 0 4.67 0 .578.045.49.045.4.09.222zM76.76.222h57.896c0 .223.045.49.045.712V12.68c0 .757 0 .89-.722.89H79.738c-.813 0-1.625.045-2.437 0-.226 0-.542-.311-.587-.445.045-4.315.045-8.586.045-12.902z"/>
        <path d="M31.859 30.876c-.496.4-1.038.8-1.49 1.245-3.79 3.693-7.58 7.43-11.37 11.123-.497.49-.994.712-1.67.712-5.46-.045-10.876 0-16.336 0H.135V15.26h13.628v15.304h17.96c0 .134.09.223.136.312zM76.805 43.911V15.26h13.673v15.349h17.96c.09.089.135.222.225.311-.496.4-.992.756-1.444 1.157-3.835 3.737-7.671 7.519-11.507 11.211-.316.312-.902.623-1.353.623-5.686.045-11.327.045-17.013.045-.18 0-.316 0-.541-.045zM60.785 15.26h13.628v28.607H60.785V15.26zM176.94 30.698c-.497.4-.994.756-1.445 1.156-3.836 3.738-7.626 7.43-11.417 11.167-.496.49-.947.712-1.67.712-8.122-.044-16.967 0-25.09 0h-.676c-.09 0 .36-.845 0-.49 4.106-4.048 8.258-8.096 12.364-12.145.542-.534 1.128-.756 1.85-.756h25.858c.09.178.135.267.225.356zM60.74.222h13.763v12.102c0 1.245 0 1.245-1.218 1.245H61.462c-.542 0-.722-.133-.722-.667V.222zM194.719 13.391V0h-57.536v13.08c0 .178.136.311.316.311h57.22z"/>
        <path d="M193.14 24.069c-.813-.623-1.445-1.424-2.302-2.314 1.128-1.023 2.12-1.957 3.159-2.847.541-.49.767-1.023.767-1.78v-.533a3.88 3.88 0 0 0 0-1.024v-.445h-17.419c-.18.178-.316.312-.45.49-1.716 1.78-3.385 3.559-5.1 5.383-.903.979-.903 1.023 0 1.958l5.415 5.739c.27.267 1.534 1.601 1.534 1.957v.267c-4.332 4.271-8.664 8.498-13.041 12.813.18.045.225.089.225.089h11.778v.045c.316 0 .587 0 .858-.045h5.686c.315 0 .676-.222.902-.445 2.978-2.892 5.957-5.783 8.845-8.764.406-.4.677-1.112.677-1.646 0-4.983-.045-.045.045-4.983.09-1.69-.27-2.892-1.58-3.915z"/>
    </g>
</svg>
