<svg viewBox="0 0 83 85" fill="none" xmlns="http://www.w3.org/2000/svg">
<path d="M71.6581 57.2059L39.2421 84.1709L0.912109 70.5669L0.998047 0L45.4141 0.0349121L71.744 16.6379L71.6581 57.2059Z" fill="#866730"/>
<path fill-rule="evenodd" clip-rule="evenodd" d="M48.6185 57.2993L58.0195 47.9023L58.0555 18.5133L28.6305 18.5123L19.2325 27.9153L41.9436 27.9143L12.6016 57.2614L26.7115 56.5684L48.6555 34.6223L48.6185 57.2993Z" fill="#FBD758"/>
<path d="M79.2381 27.1108L81.8811 24.4668C82.1061 24.2428 82.2291 23.9388 82.2271 23.6228C82.2231 23.3068 82.093 23.0049 81.864 22.7869L79.2221 20.2518C79.0021 20.0418 78.7101 19.9248 78.4081 19.9248H77.1471C76.8351 19.9248 76.5361 20.0499 76.3141 20.2709C76.0931 20.4919 75.9691 20.7919 75.9711 21.1049V26.2819C75.9751 26.9309 76.5201 27.4548 77.1671 27.4548H78.4071C78.7191 27.4548 79.0181 27.3308 79.2381 27.1108Z" fill="#FBD758"/>
<path d="M6.35352 78.063C6.53169 78.0619 6.70311 78.1325 6.83008 78.2593L6.83105 78.2603C6.9592 78.3878 7.03121 78.5604 7.03125 78.7388V80.0005C7.03113 80.1729 6.96458 80.3412 6.84375 80.4683L4.30859 83.1099L4.30762 83.1108C4.18207 83.242 4.00853 83.3162 3.82812 83.3179C3.64534 83.3196 3.47067 83.2484 3.3418 83.1196L0.697266 80.4751C0.571069 80.3487 0.5 80.1765 0.5 79.9985V78.7593C0.5 78.4245 0.73845 78.1436 1.04199 78.0776L1.17578 78.063H6.35352Z" stroke="#FBD758"/>
</svg>
