<svg viewBox="0 0 83 85" fill="none" xmlns="http://www.w3.org/2000/svg">
<path d="M71.6581 57.2059L39.2421 84.1709L0.912109 70.5669L0.998047 0L45.4141 0.0349121L71.744 16.6379L71.6581 57.2059Z" fill="#866730"/>
<path fill-rule="evenodd" clip-rule="evenodd" d="M15.9351 51.1957L25.332 60.5967L54.7211 60.6327L54.722 31.2076L45.3191 21.8097L45.3201 44.5208L15.973 15.1787L16.666 29.2887L38.6121 51.2327L15.9351 51.1957Z" fill="#FBD758"/>
<path d="M79.2381 27.1108L81.8811 24.4668C82.1061 24.2428 82.2291 23.9388 82.2271 23.6228C82.2231 23.3068 82.093 23.0049 81.864 22.7869L79.2221 20.2518C79.0021 20.0418 78.7101 19.9248 78.4081 19.9248H77.1471C76.8351 19.9248 76.5361 20.0499 76.3141 20.2709C76.0931 20.4919 75.9691 20.7919 75.9711 21.1049V26.2819C75.9751 26.9309 76.5201 27.4548 77.1671 27.4548H78.4071C78.7191 27.4548 79.0181 27.3308 79.2381 27.1108Z" stroke="#FBD758" stroke-miterlimit="10"/>
<path d="M0.344116 80.829L2.98804 83.4729C3.21204 83.6969 3.51601 83.821 3.83301 83.818C4.14801 83.815 4.45007 83.685 4.66907 83.456L7.2041 80.814C7.4141 80.594 7.53101 80.302 7.53101 80V78.7389C7.53101 78.4269 7.40608 78.127 7.18408 77.906C6.96308 77.685 6.6631 77.561 6.3501 77.563H1.1731C0.524096 77.566 0 78.1109 0 78.7589V79.9989C0 80.3099 0.124116 80.609 0.344116 80.829Z" fill="#FBD758"/>
</svg>
