<svg viewBox="0 0 379 116" fill="none" xmlns="http://www.w3.org/2000/svg">
<path id="outer-frame" d="M330.621 0.5L331.188 0.518555C334.018 0.651826 336.964 1.38954 340.044 2.74512L342.166 4.00684L375.67 26.1807C377.008 27.3772 377.854 28.6393 378.244 29.96C378.635 31.284 378.582 32.7075 378.055 34.2451L378.042 34.2832L378.035 34.3223L373.643 59.6582L373.642 59.6611L368.972 87.4199C368.949 87.5285 368.884 87.8347 368.804 88.1582C368.72 88.4967 368.632 88.8046 368.568 88.9473C368.481 89.1434 368.283 89.3841 368.051 89.6123C367.835 89.8245 367.629 89.9893 367.555 90.0469L335.649 114.057C335.466 114.16 334.389 114.742 333.856 114.965H333.855C333.625 115.062 333.192 115.168 332.687 115.268C332.198 115.363 331.684 115.444 331.312 115.499L331.305 115.5H12.0234C9.32963 115.5 7.09187 113.175 7.0918 110.263V97.0166H5.07031C2.56126 97.0166 0.500237 94.915 0.5 92.2861V31.8242C0.5 31.8314 0.499212 31.8325 0.503906 31.7998C0.507236 31.7767 0.517459 31.7137 0.519531 31.6475V31.6416C0.554968 29.7643 1.34801 28.0378 3 26.458L36.1797 4.16992L36.2012 4.1543L36.2217 4.1377C37.042 3.45099 38.2878 2.76762 39.9795 2.10059L40.7324 1.81543C42.9242 1.06281 45.1798 0.63318 47.5156 0.518555L47.9844 0.5H330.621ZM370.752 71.6279C370.733 71.6416 370.717 71.6542 370.705 71.6631C370.703 71.6644 370.702 71.6658 370.7 71.667L337.87 95.6709C337.864 95.6742 337.857 95.6784 337.849 95.6826C337.814 95.7005 337.764 95.7269 337.702 95.7588C337.579 95.8226 337.409 95.9102 337.221 96.0049C336.839 96.1974 336.402 96.4101 336.13 96.5205C335.912 96.609 335.462 96.7126 334.945 96.8086C334.463 96.8983 333.968 96.9728 333.655 97.0176H7.10742V97.5176L7.10645 110.264C7.10651 113.113 9.28171 115.488 12.0254 115.488H331.307L331.343 115.482C331.924 115.397 332.45 115.307 332.875 115.219C333.286 115.134 333.639 115.044 333.853 114.955L333.854 114.954C334.42 114.715 335.61 114.074 335.631 114.062L335.656 114.046L335.68 114.028L367.543 90.042L367.547 90.0391C367.709 89.9146 367.913 89.7367 368.094 89.5547C368.258 89.3891 368.461 89.1623 368.559 88.9453L368.561 88.9404C368.625 88.7918 368.702 88.5121 368.767 88.2549C368.836 87.9801 368.907 87.6744 368.956 87.4395L368.958 87.4297L368.96 87.4189L371.538 72.1162L371.741 70.9131L370.752 71.6279Z" stroke="#77FEF8"/>
<path d="M21.52 99.8667L27.557 105.825L21.6 111.863L18.601 111.883L21.579 108.864L15.322 108.906L18.4301 105.756L15.542 102.906L21.54 102.867L18.521 99.8877L21.52 99.8667Z" fill="#77FEF8"/>
<path d="M31.798 99.8125L37.835 105.77L31.8781 111.807L28.879 111.827L31.8571 108.808L25.601 108.85L28.708 105.701L25.8199 102.85L31.818 102.812L28.799 99.8315L31.798 99.8125Z" fill="#77FEF8"/>
<path d="M42.076 99.7578L48.113 105.715L42.156 111.752L39.157 111.771L42.136 108.754L35.879 108.795L38.9871 105.646L36.099 102.796L42.0959 102.756L39.077 99.7767L42.076 99.7578Z" fill="#77FEF8"/>
<path d="M97 87.3035C97 88.2404 96.4108 89 95.6849 89H12.3151C11.5892 89 11 88.2404 11 87.3035V67.6965C11 66.7596 11.5892 66 12.3151 66H95.6849C96.4108 66 97 66.7596 97 67.6965V87.3035Z" fill="#FBD758"/>
<path d="M23.4091 84.3091L28.5821 79.1351C29.0201 78.6971 29.262 78.1022 29.256 77.4832C29.251 76.8652 28.995 76.2741 28.547 75.8451L23.376 70.8842C22.948 70.4732 22.376 70.2432 21.783 70.2432H19.3161C18.7061 70.2432 18.1181 70.4872 17.6851 70.9202C17.2531 71.3532 17.012 71.9411 17.015 72.5541V82.6881C17.021 83.9571 18.087 84.9822 19.356 84.9822H21.7841C22.3911 84.9812 22.9781 84.7391 23.4091 84.3091Z" stroke="black"/>
<path d="M106.323 66.5H253.677C254.223 66.5001 254.698 66.6624 255.024 66.9004C255.351 67.1388 255.5 67.4265 255.5 67.6963V87.3037C255.5 87.5735 255.351 87.8612 255.024 88.0996C254.698 88.3376 254.223 88.4999 253.677 88.5H106.323C105.777 88.4999 105.302 88.3376 104.976 88.0996C104.649 87.8612 104.5 87.5735 104.5 87.3037V67.6963C104.5 67.4266 104.649 67.1389 104.976 66.9004C105.302 66.6622 105.777 66.5001 106.323 66.5Z" fill="black" stroke="#77FEF8"/>
<path d="M270.066 84.3712C269.117 84.3712 268.326 84.3032 267.689 84.1642C267.053 84.0272 266.549 83.7953 266.177 83.4723C265.805 83.1483 265.527 82.7153 265.34 82.1763C265.153 81.6363 265.025 80.9643 264.952 80.1603H263.602V78.6472H264.899V77.4062H263.602V75.9122H264.952C265.024 75.1432 265.153 74.4922 265.34 73.9592C265.527 73.4252 265.808 72.9902 266.187 72.6532C266.564 72.3182 267.068 72.0742 267.699 71.9242C268.328 71.7752 269.117 71.6992 270.066 71.6992C270.677 71.6992 271.268 71.7353 271.838 71.8073C272.407 71.8783 272.849 71.9512 273.161 72.0232V74.2373C272.932 74.2013 272.672 74.1722 272.378 74.1472C272.083 74.1232 271.799 74.1053 271.523 74.0933C271.248 74.0813 271.013 74.0752 270.822 74.0752C270.293 74.0752 269.859 74.0933 269.516 74.1283C269.174 74.1653 268.902 74.2433 268.697 74.3623C268.494 74.4823 268.338 74.6653 268.23 74.9113C268.122 75.1573 268.049 75.4913 268.013 75.9113H272.279V77.4053H267.96V78.6462H272.279V80.1593H268.013C268.049 80.5673 268.121 80.8962 268.23 81.1482C268.337 81.4002 268.494 81.5863 268.697 81.7063C268.902 81.8273 269.175 81.9052 269.516 81.9402C269.859 81.9762 270.292 81.9952 270.822 81.9952C271.265 81.9952 271.707 81.9792 272.144 81.9502C272.582 81.9202 272.945 81.8872 273.234 81.8502V84.1002C272.898 84.1612 272.435 84.2203 271.847 84.2803C271.26 84.3423 270.666 84.3712 270.066 84.3712Z" fill="#FBD758"/>
<path d="M278.742 83.0392C278.406 83.0272 278.046 83.0102 277.662 82.9852C277.277 82.9612 276.882 82.9282 276.474 82.8862C276.066 82.8442 275.663 82.7933 275.267 82.7333V80.6453C275.375 80.6453 275.535 80.6543 275.745 80.6713C275.955 80.6903 276.191 80.7082 276.456 80.7262C276.72 80.7442 277.002 80.7592 277.302 80.7712C277.602 80.7832 277.897 80.7892 278.184 80.7892C278.772 80.7892 279.192 80.7682 279.444 80.7262C279.696 80.6842 279.852 80.6033 279.913 80.4833C279.973 80.3633 280.003 80.2013 280.003 79.9983C280.003 79.7933 279.987 79.6463 279.958 79.5573C279.928 79.4673 279.851 79.4043 279.724 79.3683C279.598 79.3333 279.404 79.3032 279.139 79.2782L277.322 79.0262C276.626 78.9302 276.113 78.7512 275.783 78.4862C275.453 78.2222 275.234 77.8812 275.126 77.4602C275.018 77.0402 274.964 76.5553 274.964 76.0033C274.964 75.4273 275.048 74.9523 275.216 74.5813C275.384 74.2083 275.636 73.9152 275.972 73.6982C276.308 73.4822 276.729 73.3293 277.233 73.2393C277.737 73.1493 278.319 73.0983 278.979 73.0873C279.434 73.0873 279.854 73.0992 280.239 73.1222C280.622 73.1462 280.983 73.1832 281.319 73.2302C281.655 73.2772 281.966 73.3332 282.255 73.3922V75.4802C281.931 75.4562 281.601 75.4293 281.265 75.3993C280.929 75.3703 280.611 75.3483 280.312 75.3363C280.011 75.3243 279.753 75.3173 279.537 75.3173C279.166 75.3173 278.863 75.3262 278.629 75.3442C278.395 75.3622 278.212 75.3922 278.08 75.4342C277.947 75.4762 277.855 75.5442 277.801 75.6412C277.747 75.7382 277.72 75.8692 277.72 76.0372C277.72 76.2292 277.735 76.3773 277.765 76.4783C277.795 76.5793 277.869 76.6463 277.991 76.6763C278.11 76.7063 278.297 76.7393 278.549 76.7753L280.583 77.0272C281.075 77.0882 281.483 77.1992 281.807 77.3602C282.131 77.5222 282.374 77.7982 282.536 78.1882C282.698 78.5782 282.778 79.1583 282.778 79.9253C282.778 80.7413 282.655 81.3742 282.409 81.8232C282.163 82.2732 281.749 82.5863 281.168 82.7603C280.58 82.9353 279.773 83.0272 278.742 83.0392ZM277.842 84.3712V71.6992H279.966V84.3712H277.842Z" fill="#FBD758"/>
<path d="M14.256 48.4253L16.921 45.7603C17.147 45.5343 17.272 45.2273 17.268 44.9093C17.266 44.5903 17.134 44.2862 16.903 44.0652L14.239 41.5093C14.018 41.2983 13.723 41.1792 13.418 41.1792H12.147C11.833 41.1792 11.53 41.3052 11.307 41.5282C11.084 41.7512 10.9601 42.0543 10.9621 42.3693V47.5883C10.9651 48.2423 11.514 48.7703 12.168 48.7703H13.418C13.732 48.7713 14.034 48.6473 14.256 48.4253Z" fill="#FBD758"/>
<path d="M14.256 58.2665L16.921 55.6014C17.147 55.3764 17.272 55.0695 17.268 54.7505C17.266 54.4315 17.134 54.1275 16.903 53.9075L14.239 51.3514C14.018 51.1404 13.723 51.0215 13.418 51.0215H12.147C11.833 51.0215 11.53 51.1465 11.307 51.3705C11.084 51.5935 10.9601 51.8965 10.9621 52.2115V57.4305C10.9651 58.0845 11.514 58.6125 12.168 58.6125H13.418C13.732 58.6125 14.034 58.4885 14.256 58.2665Z" fill="#FBD758"/>
<path d="M24.706 51.3021L22.041 53.9672C21.815 54.1932 21.6899 54.4991 21.6939 54.8181C21.6959 55.1361 21.8279 55.4411 22.0589 55.6611L24.723 58.2172C24.944 58.4292 25.2389 58.5461 25.5439 58.5461H26.8149C27.1289 58.5461 27.432 58.4211 27.655 58.1971C27.878 57.9741 28.002 57.6721 28 57.3561V52.1361C27.997 51.4831 27.4479 50.9541 26.7939 50.9541H25.5439C25.2299 50.9551 24.928 51.0801 24.706 51.3021Z" fill="#FBD758"/>
<path d="M24.706 41.4613L22.041 44.1262C21.815 44.3522 21.6899 44.6583 21.6939 44.9783C21.6959 45.2953 21.8279 45.6003 22.0589 45.8213L24.723 48.3772C24.944 48.5892 25.2389 48.7073 25.5439 48.7073H26.8149C27.1289 48.7073 27.432 48.5823 27.655 48.3593C27.878 48.1363 28.002 47.8332 28 47.5172V42.2982C27.997 41.6442 27.4479 41.1162 26.7939 41.1162H25.5439C25.2299 41.1142 24.928 41.2393 24.706 41.4613Z" fill="#FBD758"/>
<path d="M273.667 59.334H43L21 20.333L43 5.33398H284V50.334L273.667 59.334Z" fill="black" stroke="#77FEF8"/>
<path d="M17.731 53.199C17.712 53.224 17.6921 53.248 17.6801 53.278C17.6931 53.248 17.711 53.222 17.731 53.199ZM18.223 52.6169C18.223 52.4779 18.114 52.358 17.962 52.33C17.267 52.199 16.762 51.644 16.762 51.01C16.762 50.795 16.818 50.423 16.927 50.231C16.951 50.19 16.964 50.144 16.964 50.098C16.964 50.078 16.962 50.0579 16.957 50.0389C16.872 49.6629 16.826 49.475 16.826 49.178C16.826 48.501 17.018 46.2939 19.49 46.2939C21.961 46.2939 22.153 48.501 22.153 49.178C22.153 49.449 22.115 49.607 22.042 49.948C22.039 49.967 22.036 49.9841 22.036 50.0031C22.036 50.0561 22.052 50.108 22.082 50.153C22.222 50.361 22.295 50.766 22.295 51.009C22.295 51.672 21.762 52.232 21.03 52.339C20.871 52.363 20.754 52.4851 20.754 52.6281C20.754 52.6281 20.754 52.855 20.754 53.051C20.651 53.087 20.566 53.155 20.516 53.243C20.421 53.154 20.287 53.097 20.14 53.097C19.933 53.097 19.756 53.2061 19.672 53.3621C19.612 53.3641 19.551 53.365 19.488 53.365C19.453 53.365 19.42 53.365 19.385 53.365C19.302 53.208 19.124 53.098 18.917 53.098C18.752 53.098 18.606 53.168 18.511 53.276C18.46 53.163 18.354 53.078 18.222 53.043C18.223 52.844 18.223 52.6169 18.223 52.6169ZM21.239 53.155C21.26 53.173 21.2779 53.192 21.2939 53.215C21.2779 53.192 21.258 53.174 21.239 53.155Z" fill="#FBD758"/>
<path d="M18.37 51.521C18.8273 51.521 19.198 51.1624 19.198 50.72C19.198 50.2776 18.8273 49.9189 18.37 49.9189C17.9127 49.9189 17.542 50.2776 17.542 50.72C17.542 51.1624 17.9127 51.521 18.37 51.521Z" fill="#1C0816"/>
<path d="M20.687 51.521C21.1443 51.521 21.515 51.1624 21.515 50.72C21.515 50.2776 21.1443 49.9189 20.687 49.9189C20.2297 49.9189 19.859 50.2776 19.859 50.72C19.859 51.1624 20.2297 51.521 20.687 51.521Z" fill="#1C0816"/>
<path d="M19.788 52.266C19.736 52.462 19.619 52.571 19.528 52.571C19.437 52.571 19.32 52.463 19.268 52.266C19.179 51.935 18.944 51.439 19.528 51.439C20.112 51.439 19.877 51.935 19.788 52.266Z" fill="#1C0816"/>
</svg>
